<?xml version="1.0" encoding="utf-8"?>
<!-- Generator: Adobe Illustrator 15.1.0, SVG Export Plug-In . SVG Version: 6.00 Build 0)  -->
<!DOCTYPE svg PUBLIC "-//W3C//DTD SVG 1.0//EN" "http://www.w3.org/TR/2001/REC-SVG-20010904/DTD/svg10.dtd">
<svg version="1.0" id="Ebene_1" xmlns="http://www.w3.org/2000/svg" xmlns:xlink="http://www.w3.org/1999/xlink" x="0px" y="0px"
	 width="200px" height="100px" viewBox="0 0 200 100" enable-background="new 0 0 200 100" xml:space="preserve">
<g>
	<g>
		<g>
			<g>
				<path fill-rule="evenodd" clip-rule="evenodd" fill="#FFFFFF" d="M168.281,35.638c1.764,0,3.201-1.522,3.201-3.413
					c0-1.862-1.438-3.395-3.201-3.395c-1.768,0-3.217,1.532-3.217,3.395C165.064,34.115,166.514,35.638,168.281,35.638
					L168.281,35.638z M168.281,35.177c-1.555,0-2.742-1.29-2.742-2.952c0-1.591,1.188-2.929,2.742-2.929
					c1.549,0,2.736,1.338,2.736,2.929C171.018,33.887,169.83,35.177,168.281,35.177L168.281,35.177z M168.729,32.414
					c0.672-0.017,1.188-0.328,1.188-1.072c0-0.318-0.139-0.662-0.424-0.824c-0.281-0.176-0.592-0.191-0.908-0.191h-1.637v3.809
					h0.498v-1.721h0.756l1.07,1.721h0.592L168.729,32.414L168.729,32.414z M167.445,32.014v-1.291h1.031
					c0.424,0,0.924,0.066,0.924,0.605c0,0.599-0.371,0.686-1.291,0.686H167.445L167.445,32.014z"/>
				<path fill-rule="evenodd" clip-rule="evenodd" fill="#FFFFFF" d="M53.9,32.814v22.497h4.441V32.814H53.9L53.9,32.814z
					 M62.991,32.814v22.497h9.11v-4.177h-4.656v-18.32H62.991L62.991,32.814z M79.584,55.312c7.009,0,9.485-4.656,9.485-11.073
					c0-12.56-9.306-11.424-10.084-11.424h-3.369v22.497H79.584L79.584,55.312z M80.054,51.311V36.809c3.68,0,4.57,4.534,4.57,7.403
					C84.624,47.012,83.641,51.495,80.054,51.311L80.054,51.311z M94.327,55.312h2.416c5.513,0,6.95-2.446,6.95-11.249
					c0-10.709-2.81-11.248-7.099-11.248h-2.267V55.312L94.327,55.312z M96.409,34.721h0.361c3.968,0,4.771,1.608,4.771,9.342
					c0,6.507-0.506,9.336-4.533,9.336h-0.599V34.721L96.409,34.721z M114.871,32.814h-7.068v22.497h7.068v-1.913h-4.973v-8.829
					h4.826v-1.906h-4.826v-7.942h4.973V32.814L114.871,32.814z M126.9,33.708c-1.074-0.745-2.211-1.195-3.547-1.195
					c-3.32,0-5.162,2.959-5.162,5.967c0,3.224,1.939,4.687,3.844,6c1.91,1.341,3.848,2.502,3.82,5.13
					c0.027,2.035-1.195,3.975-3.402,3.975c-1.426,0-2.684-0.805-3.645-1.827v2.717c1.018,0.778,2.305,1.142,3.555,1.142
					c3.52,0,5.643-3.11,5.643-6.387c0-3.107-1.912-4.54-3.822-5.887c-1.936-1.314-3.848-2.529-3.848-5.163
					c0-1.906,1.164-3.634,3.252-3.634c1.426,0,2.416,0.805,3.313,1.82V33.708L126.9,33.708z M133.963,32.814h-2.08v22.497h2.08
					V32.814L133.963,32.814z M142.982,45.34h3.041v1.701c0,4.809-0.207,6.543-2.564,6.543c-2.182,0-3.221-1.913-3.221-10.242
					c0-3.969,0.232-8.767,3.342-8.797c1.641,0,2.207,1.668,2.443,3.015l2.061-0.808c-0.563-2.452-1.906-4.239-4.596-4.239
					c-4.766,0-5.4,5.706-5.4,11.014c0,7.099,0.451,12.089,5.195,12.089c4.656,0,4.832-4.48,4.832-8.034v-4.147h-5.133V45.34
					L142.982,45.34z M161.6,32.814h-1.826v14.978c0,0.986,0.152,1.999,0.215,2.982h-0.09c-0.211-0.778-0.424-1.546-0.684-2.323
					l-5.16-15.637h-1.83v22.497h1.83V41.644c0-1.459-0.158-2.893-0.248-4.352h0.123c0.268,0.946,0.453,1.962,0.777,2.893
					l5.066,15.127h1.826V32.814L161.6,32.814z M27.392,32.814l4.538,22.497h3.875l2.568-11.878c0.331-1.37,0.479-2.746,0.721-4.116
					c0.265,1.37,0.536,2.746,0.685,4.116l2.297,11.878h3.849l4.656-22.497h-4.656l-1.757,10.798
					c-0.274,1.582-0.301,3.131-0.457,4.716l-2.919-15.514h-3.518l-2.24,10.742c-0.328,1.578-0.447,3.187-0.655,4.771
					c-0.208-1.585-0.274-3.193-0.533-4.771l-1.916-10.742H27.392L27.392,32.814z"/>
			</g>
		</g>
	</g>
	<g>
		<g>
			<path fill="#FFFFFF" d="M34.458,70.221c-0.64,0-1.226-0.238-1.665-0.677c-0.614-0.614-0.614-1.254-0.614-2.636
				s0-2.023,0.614-2.636c0.439-0.44,1.025-0.677,1.665-0.677c1.172,0,2.041,0.713,2.261,1.939h-0.714
				c-0.174-0.796-0.732-1.317-1.547-1.317c-0.43,0-0.841,0.164-1.125,0.457c-0.412,0.422-0.459,0.87-0.459,2.233
				s0.047,1.812,0.459,2.234c0.284,0.29,0.695,0.456,1.125,0.456c0.815,0,1.392-0.521,1.565-1.317h0.696
				C36.508,69.508,35.62,70.221,34.458,70.221z"/>
			<path fill="#FFFFFF" d="M41.422,66.524c-0.247-0.248-0.431-0.331-0.778-0.331c-0.659,0-1.08,0.522-1.08,1.209v2.764h-0.659
				v-4.502h0.659v0.549c0.247-0.375,0.741-0.605,1.263-0.605c0.43,0,0.759,0.102,1.08,0.422L41.422,66.524z"/>
			<path fill="#FFFFFF" d="M43.625,68.088c0,0.989,0.467,1.557,1.327,1.557c0.522,0,0.824-0.155,1.182-0.513l0.448,0.394
				c-0.458,0.457-0.879,0.695-1.648,0.695c-1.19,0-1.967-0.713-1.967-2.307c0-1.454,0.705-2.307,1.849-2.307
				c1.162,0,1.848,0.842,1.848,2.18v0.301H43.625z M45.868,66.844c-0.174-0.412-0.577-0.677-1.052-0.677
				c-0.477,0-0.879,0.265-1.054,0.677c-0.1,0.246-0.118,0.384-0.137,0.751h2.38C45.987,67.228,45.968,67.09,45.868,66.844z"/>
			<path fill="#FFFFFF" d="M51.385,70.166v-0.431c-0.366,0.366-0.696,0.485-1.3,0.485c-0.623,0-0.989-0.119-1.273-0.412
				c-0.219-0.218-0.338-0.558-0.338-0.915c0-0.787,0.549-1.299,1.556-1.299h1.354v-0.431c0-0.66-0.329-0.989-1.153-0.989
				c-0.577,0-0.87,0.138-1.135,0.513l-0.448-0.411c0.402-0.521,0.86-0.669,1.592-0.669c1.208,0,1.804,0.523,1.804,1.502v3.057
				H51.385z M51.385,68.088h-1.264c-0.676,0-1.006,0.274-1.006,0.798c0,0.521,0.32,0.768,1.034,0.768
				c0.384,0,0.723-0.026,1.006-0.301c0.156-0.147,0.229-0.404,0.229-0.778V68.088z"/>
			<path fill="#FFFFFF" d="M55.674,70.166c-0.769,0-1.153-0.539-1.153-1.208v-2.765h-0.567V65.69h0.567v-1.41h0.66v1.41h0.96v0.503
				h-0.96v2.747c0,0.412,0.191,0.658,0.613,0.658h0.348v0.567H55.674z"/>
			<path fill="#FFFFFF" d="M58.18,64.382V63.64h0.741v0.742H58.18z M58.218,70.166v-4.502h0.659v4.502H58.218z"/>
			<path fill="#FFFFFF" d="M62.811,70.166h-0.586l-1.647-4.502h0.714l1.226,3.613l1.235-3.613h0.714L62.811,70.166z"/>
			<path fill="#FFFFFF" d="M66.477,68.088c0,0.989,0.469,1.557,1.328,1.557c0.522,0,0.824-0.155,1.182-0.513l0.45,0.394
				c-0.46,0.457-0.88,0.695-1.648,0.695c-1.191,0-1.969-0.713-1.969-2.307c0-1.454,0.705-2.307,1.85-2.307
				c1.162,0,1.849,0.842,1.849,2.18v0.301H66.477z M68.721,66.844c-0.174-0.412-0.576-0.677-1.053-0.677s-0.878,0.265-1.052,0.677
				c-0.101,0.246-0.119,0.384-0.139,0.751h2.381C68.84,67.228,68.82,67.09,68.721,66.844z"/>
			<path fill="#FFFFFF" d="M73.102,70.221c-0.759,0-1.354-0.174-1.848-0.65l0.438-0.438c0.357,0.376,0.842,0.521,1.4,0.521
				c0.741,0,1.2-0.265,1.2-0.796c0-0.394-0.228-0.614-0.75-0.658l-0.742-0.064c-0.88-0.073-1.347-0.467-1.347-1.209
				c0-0.823,0.697-1.318,1.658-1.318c0.64,0,1.218,0.155,1.618,0.486l-0.43,0.431c-0.319-0.248-0.731-0.357-1.198-0.357
				c-0.659,0-1.006,0.282-1.006,0.741c0,0.384,0.218,0.612,0.788,0.658l0.721,0.064c0.788,0.073,1.328,0.376,1.328,1.217
				C74.933,69.718,74.191,70.221,73.102,70.221z"/>
			<path fill="#FFFFFF" d="M85.063,70.166H84.45l-1.182-3.496l-1.171,3.496h-0.614l-1.428-4.502h0.715l1.034,3.613l1.18-3.613h0.569
				l1.188,3.613l1.026-3.613h0.715L85.063,70.166z"/>
			<path fill="#FFFFFF" d="M88.133,64.382V63.64h0.742v0.742H88.133z M88.171,70.166v-4.502h0.659v4.502H88.171z"/>
			<path fill="#FFFFFF" d="M92.519,70.166c-0.77,0-1.155-0.539-1.155-1.208v-2.765h-0.566V65.69h0.566v-1.41h0.661v1.41h0.961v0.503
				h-0.961v2.747c0,0.412,0.192,0.658,0.614,0.658h0.348v0.567H92.519z"/>
			<path fill="#FFFFFF" d="M97.942,70.166v-2.781c0-0.788-0.42-1.191-1.097-1.191c-0.677,0-1.127,0.412-1.127,1.191v2.781H95.06
				V63.65h0.658v2.507c0.331-0.374,0.762-0.55,1.265-0.55c1.016,0,1.62,0.65,1.62,1.666v2.893H97.942z"/>
			<path fill="#FFFFFF" d="M106.91,70.221c-0.641,0-1.227-0.238-1.666-0.677c-0.613-0.614-0.613-1.254-0.613-2.636
				s0-2.023,0.613-2.636c0.439-0.44,1.025-0.677,1.666-0.677c1.172,0,2.041,0.713,2.262,1.939h-0.715
				c-0.172-0.796-0.732-1.317-1.547-1.317c-0.43,0-0.842,0.164-1.125,0.457c-0.412,0.422-0.459,0.87-0.459,2.233
				s0.047,1.812,0.459,2.234c0.283,0.29,0.695,0.456,1.125,0.456c0.814,0,1.391-0.521,1.566-1.317h0.695
				C108.959,69.508,108.072,70.221,106.91,70.221z"/>
			<path fill="#FFFFFF" d="M114.248,69.708c-0.313,0.311-0.742,0.513-1.291,0.513s-0.979-0.202-1.291-0.513
				c-0.455-0.467-0.549-1.097-0.549-1.794c0-0.695,0.094-1.327,0.549-1.794c0.313-0.311,0.742-0.513,1.291-0.513
				s0.979,0.202,1.291,0.513c0.457,0.467,0.549,1.099,0.549,1.794C114.797,68.611,114.705,69.241,114.248,69.708z M113.781,66.524
				c-0.211-0.212-0.504-0.331-0.824-0.331c-0.322,0-0.604,0.119-0.814,0.331c-0.328,0.329-0.367,0.887-0.367,1.39
				c0,0.505,0.039,1.063,0.367,1.392c0.211,0.21,0.492,0.329,0.814,0.329c0.32,0,0.613-0.119,0.824-0.329
				c0.328-0.329,0.357-0.887,0.357-1.392C114.139,67.411,114.109,66.854,113.781,66.524z"/>
			<path fill="#FFFFFF" d="M122.758,70.166v-2.773c0-0.796-0.43-1.199-1.107-1.199c-0.658,0-1.125,0.412-1.125,1.127v2.846h-0.66
				v-2.773c0-0.796-0.43-1.199-1.107-1.199s-1.125,0.412-1.125,1.199v2.773h-0.658v-4.502h0.658v0.493
				c0.32-0.366,0.768-0.55,1.271-0.55c0.621,0,1.109,0.257,1.383,0.751c0.348-0.494,0.85-0.751,1.482-0.751
				c0.484,0,0.887,0.155,1.162,0.422c0.32,0.312,0.486,0.731,0.486,1.254v2.883H122.758z"/>
			<path fill="#FFFFFF" d="M128.814,69.827c-0.238,0.238-0.641,0.394-1.098,0.394c-0.496,0-0.906-0.119-1.273-0.586v2.545h-0.658
				v-6.516h0.658v0.529c0.367-0.475,0.777-0.586,1.273-0.586c0.457,0,0.859,0.155,1.098,0.394c0.457,0.459,0.549,1.208,0.549,1.913
				S129.271,69.37,128.814,69.827z M127.578,66.193c-0.98,0-1.135,0.842-1.135,1.721s0.154,1.721,1.135,1.721
				c0.979,0,1.127-0.842,1.127-1.721S128.557,66.193,127.578,66.193z"/>
			<path fill="#FFFFFF" d="M131.949,68.088c0,0.989,0.469,1.557,1.328,1.557c0.521,0,0.824-0.155,1.182-0.513l0.449,0.394
				c-0.459,0.457-0.881,0.695-1.648,0.695c-1.191,0-1.969-0.713-1.969-2.307c0-1.454,0.705-2.307,1.85-2.307
				c1.162,0,1.85,0.842,1.85,2.18v0.301H131.949z M134.193,66.844c-0.174-0.412-0.576-0.677-1.053-0.677s-0.879,0.265-1.053,0.677
				c-0.102,0.246-0.119,0.384-0.139,0.751h2.381C134.313,67.228,134.293,67.09,134.193,66.844z"/>
			<path fill="#FFFFFF" d="M138.42,70.166c-0.77,0-1.154-0.539-1.154-1.208v-2.765h-0.568V65.69h0.568v-1.41h0.66v1.41h0.961v0.503
				h-0.961v2.747c0,0.412,0.191,0.658,0.613,0.658h0.348v0.567H138.42z"/>
			<path fill="#FFFFFF" d="M141.299,68.088c0,0.989,0.469,1.557,1.33,1.557c0.52,0,0.822-0.155,1.18-0.513l0.449,0.394
				c-0.457,0.457-0.879,0.695-1.648,0.695c-1.191,0-1.969-0.713-1.969-2.307c0-1.454,0.705-2.307,1.85-2.307
				c1.162,0,1.85,0.842,1.85,2.18v0.301H141.299z M143.543,66.844c-0.172-0.412-0.576-0.677-1.053-0.677s-0.877,0.265-1.053,0.677
				c-0.1,0.246-0.119,0.384-0.139,0.751h2.383C143.662,67.228,143.643,67.09,143.543,66.844z"/>
			<path fill="#FFFFFF" d="M149.391,70.166v-2.773c0-0.796-0.43-1.199-1.109-1.199c-0.678,0-1.115,0.412-1.115,1.199v2.773h-0.658
				v-4.502h0.658v0.493c0.318-0.366,0.758-0.55,1.262-0.55c0.486,0,0.881,0.147,1.154,0.422c0.322,0.312,0.467,0.731,0.467,1.254
				v2.883H149.391z"/>
			<path fill="#FFFFFF" d="M154.166,70.221c-1.135,0-1.996-0.768-1.996-2.307c0-1.537,0.861-2.307,1.996-2.307
				c0.621,0,1.016,0.166,1.482,0.669l-0.449,0.422c-0.338-0.376-0.604-0.505-1.033-0.505c-0.439,0-0.807,0.176-1.045,0.513
				c-0.209,0.293-0.293,0.641-0.293,1.208s0.084,0.915,0.293,1.208c0.238,0.339,0.605,0.513,1.045,0.513
				c0.43,0,0.695-0.138,1.033-0.513l0.449,0.43C155.182,70.057,154.787,70.221,154.166,70.221z"/>
			<path fill="#FFFFFF" d="M157.941,68.088c0,0.989,0.469,1.557,1.328,1.557c0.521,0,0.822-0.155,1.18-0.513l0.451,0.394
				c-0.461,0.457-0.881,0.695-1.648,0.695c-1.191,0-1.969-0.713-1.969-2.307c0-1.454,0.705-2.307,1.85-2.307
				c1.162,0,1.848,0.842,1.848,2.18v0.301H157.941z M160.186,66.844c-0.174-0.412-0.576-0.677-1.053-0.677s-0.879,0.265-1.053,0.677
				c-0.1,0.246-0.119,0.384-0.139,0.751h2.381C160.305,67.228,160.285,67.09,160.186,66.844z"/>
		</g>
	</g>
</g>
</svg>
